<?xml version="1.0" encoding="UTF-8" standalone="no"?>
<svg
   width="182"
   height="182"
   viewBox="0 0 182 182"
   version="1.1"
   xml:space="preserve"
   style="clip-rule:evenodd;fill-rule:evenodd;stroke-linecap:round;stroke-miterlimit:2"
   id="svg128"
   sodipodi:docname="f0c56e99113f1a0731b4.svg"
   inkscape:version="1.2.2 (b0a8486541, 2022-12-01)"
   xmlns:inkscape="http://www.inkscape.org/namespaces/inkscape"
   xmlns:sodipodi="http://sodipodi.sourceforge.net/DTD/sodipodi-0.dtd"
   xmlns="http://www.w3.org/2000/svg"
   xmlns:svg="http://www.w3.org/2000/svg"><defs
   id="defs132" /><sodipodi:namedview
   id="namedview130"
   pagecolor="#ffffff"
   bordercolor="#000000"
   borderopacity="0.25"
   inkscape:showpageshadow="2"
   inkscape:pageopacity="0.0"
   inkscape:pagecheckerboard="0"
   inkscape:deskcolor="#d1d1d1"
   showgrid="false"
   inkscape:zoom="5.5054945"
   inkscape:cx="79.647705"
   inkscape:cy="88.366267"
   inkscape:window-width="2496"
   inkscape:window-height="1312"
   inkscape:window-x="0"
   inkscape:window-y="0"
   inkscape:window-maximized="1"
   inkscape:current-layer="svg128" />
    <g
   transform="translate(-42.217693,-32.191922)"
   id="g126">
        <g
   transform="matrix(0.256192,0,0,0.26903,865.831,258.036)"
   id="g124">
            <g
   transform="matrix(-1.30031,0,0,1.2824,-5204.42,-15.1179)"
   id="g86">
                <path
   d="m -1603,-204.571 c 24.42,0.29 34.36,15.069 37.07,37.069"
   style="fill:none;stroke:#000000;stroke-width:11.38px;stroke-opacity:1"
   id="path84" />
            </g>
            <g
   transform="matrix(-1.2973,-0.953582,-0.966902,1.27943,-4615.99,-815.89)"
   id="g90">
                <path
   d="m -939,-486 c 0,0 36.903,-173.906 143,-111 106.097,62.906 -130.088,130.211 -133,129"
   style="fill:none;stroke:#000000;stroke-width:9.3px;stroke-opacity:1"
   id="path88" />
            </g>
            <g
   transform="matrix(816.653,-240.699,244.061,805.403,-3226.92,-110.694)"
   id="g94">
                <path
   d="M 0.525,0.011 C 0.453,0.011 0.388,0.001 0.329,-0.018 0.271,-0.038 0.224,-0.067 0.19,-0.106 0.155,-0.144 0.138,-0.193 0.138,-0.251 c 0,-0.059 0.017,-0.107 0.052,-0.146 0.034,-0.038 0.081,-0.067 0.139,-0.086 0.059,-0.019 0.124,-0.029 0.196,-0.029 0.072,0 0.137,0.01 0.195,0.029 0.058,0.019 0.105,0.048 0.14,0.087 0.034,0.038 0.052,0.087 0.052,0.145 0,0.058 -0.018,0.107 -0.052,0.145 C 0.825,-0.067 0.778,-0.038 0.72,-0.018 0.662,0.001 0.597,0.011 0.525,0.011 Z"
   style="fill:#000000;fill-opacity:1;fill-rule:nonzero"
   id="path92"
   inkscape:label="path92" />
            </g>
            <g
   transform="matrix(1.30031,0,0,1.2824,-932.381,-308.02)"
   id="g98">
                <circle
   cx="-1669.5"
   cy="-74.5"
   r="17.5"
   style="fill:#000000;fill-opacity:1;stroke:#000000;stroke-width:11.38px;stroke-linecap:square;stroke-linejoin:round;stroke-opacity:1"
   id="circle96" />
            </g>
            <g
   transform="matrix(1.30031,0,0,1.2824,-801.05,-285.578)"
   id="g102">
                <circle
   cx="-1669.5"
   cy="-74.5"
   r="17.5"
   style="fill:#000000;fill-opacity:1;stroke:#000000;stroke-width:11.38;stroke-linecap:square;stroke-linejoin:round;stroke-dasharray:none;stroke-opacity:1"
   id="circle100" />
            </g>
            <g
   transform="matrix(1.61799,0,0,1.5957,-1316.63,223.263)"
   id="g106">
                <path
   d="m -939,-486 c 0,0 36.903,-173.906 143,-111 106.097,62.906 -130.088,130.211 -133,129"
   style="fill:none;stroke:#000000;stroke-width:9.15px;stroke-opacity:1"
   id="path104" />
            </g>
            <g
   transform="matrix(1.30031,0,0,1.2824,-775.629,34.1386)"
   id="g110">
                <path
   d="m -1603,-204.571 c 24.42,0.29 34.36,15.069 37.07,37.069"
   style="fill:none;stroke:#000000;stroke-width:11.38px;stroke-opacity:1"
   id="path108" />
            </g>
            <g
   transform="matrix(1.30031,0,0,1.2824,-661.888,-13.3998)"
   id="g114">
                <path
   d="m -1603,-204.571 c 24.42,0.29 34.36,15.069 37.07,37.069"
   style="fill:none;stroke:#000000;stroke-width:11.38px;stroke-opacity:1"
   id="path112" />
            </g>
            <g
   transform="matrix(1.2577,-0.325599,0.330147,1.24037,-577.602,-579.56)"
   id="g118">
                <path
   d="m -1603,-204.571 c 24.42,0.29 34.36,15.069 37.07,37.069"
   style="fill:none;stroke:#000000;stroke-width:11.48px;stroke-opacity:1"
   id="path116" />
            </g>
            <g
   transform="matrix(0.847203,0.0607778,-0.0616267,0.835533,-2048.07,-171.385)"
   id="g122">
                <path
   d="m -1225,-120 c 0.08,1.113 14.01,14.477 31,0 0.53,-0.136 14.47,13.759 30.86,0.86"
   style="fill:none;stroke:#000000;stroke-width:17.38px;stroke-linejoin:round;stroke-opacity:1"
   id="path120" />
            </g>
        </g>
    </g>
</svg>
