<?xml version="1.0" standalone="no"?>
<!DOCTYPE svg PUBLIC "-//W3C//DTD SVG 20010904//EN"
 "http://www.w3.org/TR/2001/REC-SVG-20010904/DTD/svg10.dtd">
<svg version="1.0" xmlns="http://www.w3.org/2000/svg"
 width="445.000000pt" height="445.000000pt" viewBox="0 0 445.000000 445.000000"
 preserveAspectRatio="xMidYMid meet">
<metadata>
Created by potrace 1.14, written by Peter Selinger 2001-2017
</metadata>
<g transform="translate(0.000000,445.000000) scale(0.100000,-0.100000)"
fill="#000000" stroke="none">
<path d="M2159 3946 c-5 -6 -69 -18 -94 -18 -32 0 -85 -19 -85 -29 0 -6 -5 -7
-11 -3 -6 3 -14 3 -18 -2 -12 -18 -61 -44 -81 -44 -11 0 -20 -5 -20 -11 0 -5
-4 -8 -9 -4 -11 6 -121 -50 -137 -71 -6 -8 -18 -14 -26 -14 -13 0 -27 -9 -75
-50 -7 -5 -17 -10 -23 -10 -5 0 -10 -5 -10 -11 0 -5 -4 -8 -10 -4 -5 3 -17 -2
-27 -12 -10 -10 -31 -26 -46 -36 -15 -9 -27 -24 -27 -32 0 -8 -3 -15 -8 -15
-14 0 -72 -58 -72 -72 0 -8 -9 -20 -19 -28 -11 -7 -18 -17 -16 -20 2 -4 -16
-28 -40 -55 -25 -26 -45 -52 -45 -56 0 -5 -9 -18 -21 -30 -12 -12 -19 -29 -16
-40 3 -10 1 -19 -5 -19 -6 0 -7 -7 -4 -15 3 -9 -1 -18 -8 -21 -8 -3 -17 -17
-20 -30 -4 -14 -11 -22 -16 -19 -6 4 -13 -2 -16 -12 -3 -10 -10 -27 -15 -38
-6 -12 -12 -30 -14 -40 -2 -11 -4 -22 -5 -25 -1 -3 -2 -8 -1 -12 0 -5 -4 -8
-10 -8 -8 0 -10 -12 -6 -33 4 -25 1 -36 -13 -45 -15 -9 -18 -21 -16 -56 2 -28
0 -43 -6 -40 -6 4 -9 -11 -7 -39 2 -25 1 -43 -3 -41 -8 5 -4 -80 7 -144 4 -23
11 -45 16 -48 4 -2 6 -11 2 -19 -8 -22 17 -77 33 -71 8 3 11 0 7 -10 -6 -17
28 -68 65 -98 13 -10 28 -29 33 -43 5 -15 19 -26 39 -29 40 -8 50 -24 56 -81
3 -26 13 -59 22 -73 9 -14 15 -29 13 -35 -1 -5 0 -7 4 -3 9 9 73 -55 68 -69
-3 -6 16 -23 41 -38 25 -15 46 -31 46 -36 0 -4 38 -29 84 -55 84 -47 84 -47
88 -90 2 -24 0 -44 -3 -44 -9 0 1 -41 12 -56 5 -6 6 -14 2 -18 -4 -4 -1 -11 7
-16 10 -6 11 -10 3 -10 -7 0 -10 -7 -7 -15 10 -24 -16 -77 -31 -65 -6 5 -15 7
-18 3 -4 -3 -35 -12 -69 -19 -103 -21 -152 -35 -163 -45 -5 -5 -23 -9 -40 -9
-16 0 -45 -9 -63 -20 -18 -11 -37 -18 -43 -15 -5 4 -9 -1 -9 -9 0 -17 -27 -25
-55 -16 -24 9 -124 -22 -136 -42 -5 -7 -6 -19 -4 -27 5 -11 3 -12 -10 -1 -15
12 -16 11 -19 -22 -1 -7 -5 -16 -10 -19 -4 -4 2 -7 15 -7 13 0 29 -1 34 -3 6
-2 37 9 70 25 32 16 69 29 82 28 12 0 20 4 17 9 -5 8 6 10 80 13 16 1 31 7 34
14 7 22 31 -6 43 -51 6 -22 23 -53 39 -68 16 -17 23 -30 16 -33 -6 -3 -2 -8 9
-11 11 -4 43 -35 70 -70 28 -35 58 -64 67 -64 9 -1 21 -7 25 -13 9 -14 109
-98 116 -98 2 0 26 -10 53 -22 27 -12 51 -23 54 -23 3 0 15 -6 28 -14 14 -7
35 -10 54 -6 23 6 29 4 23 -6 -15 -24 -13 -74 4 -115 19 -42 19 -96 1 -102 -5
-2 -7 -8 -4 -14 3 -5 -2 -16 -12 -23 -11 -8 -14 -15 -9 -15 6 0 6 -3 0 -8 -23
-16 -57 -88 -70 -150 -18 -90 -13 -131 21 -159 15 -12 31 -20 35 -17 4 2 28 6
53 8 25 2 52 9 60 15 12 10 18 5 32 -26 17 -36 51 -73 137 -151 20 -19 37 -38
37 -44 0 -14 23 -35 40 -36 8 0 32 -4 53 -8 24 -4 37 -3 37 4 0 6 6 9 14 6 14
-5 85 57 87 77 1 5 2 13 3 18 0 5 4 12 7 15 3 3 2 29 -3 58 -5 29 -10 66 -12
82 -2 16 -11 45 -19 65 -13 31 -26 64 -32 81 -9 27 -19 40 -31 40 -21 0 -17
46 5 56 18 8 93 70 144 118 18 17 25 17 71 7 30 -7 93 -10 156 -7 128 6 155
10 174 25 12 10 17 8 26 -8 6 -12 8 -21 4 -21 -4 0 3 -11 15 -24 16 -17 19
-25 9 -28 -10 -4 -10 -11 3 -39 9 -19 20 -50 24 -69 4 -19 10 -39 13 -45 4 -5
7 -14 7 -20 0 -5 11 -42 24 -82 22 -69 24 -71 47 -61 13 6 25 16 25 22 6 47 4
74 -7 90 -7 10 -10 24 -8 30 3 7 -1 26 -7 42 -7 16 -11 33 -10 38 1 5 -3 12
-10 16 -6 4 -13 19 -14 33 -2 13 -8 34 -14 45 -6 11 -13 40 -16 63 -6 47 -21
79 -36 79 -6 0 -8 4 -5 9 6 9 -11 50 -45 111 -11 19 -30 55 -42 80 -12 25 -25
47 -29 50 -3 3 -9 17 -13 32 -4 15 -12 26 -19 25 -6 -1 -10 8 -8 22 2 19 0 21
-12 12 -10 -9 -16 -8 -26 4 -7 8 -9 15 -5 15 3 0 -3 12 -14 27 -21 26 -21 26
-2 45 11 10 25 18 31 18 5 0 10 5 10 10 0 6 7 10 14 10 8 0 27 11 42 25 15 14
31 25 35 25 5 0 9 12 9 26 0 15 4 23 11 19 30 -19 54 107 27 141 -5 7 -11 20
-13 30 -20 85 -52 162 -82 196 -13 15 -11 19 24 42 21 14 42 26 48 26 6 0 25
14 43 30 18 16 36 30 40 30 14 1 49 36 80 83 18 26 37 47 42 47 6 0 10 6 10
14 0 8 9 30 20 48 11 19 25 70 31 113 6 44 14 82 19 85 4 3 8 58 8 122 0 64 3
122 7 127 3 6 -1 24 -10 41 -9 17 -11 30 -5 30 14 0 12 20 -4 52 -9 17 -11 30
-5 34 5 3 7 9 4 14 -3 5 -8 26 -11 47 -3 21 -7 47 -9 58 -3 11 -7 38 -10 60
-9 63 -10 68 -29 110 -9 22 -19 64 -22 95 -3 30 -9 64 -13 75 -14 32 -53 119
-63 135 -4 8 -12 24 -17 35 -5 12 -16 27 -25 34 -9 7 -13 17 -10 22 3 5 1 9
-5 9 -6 0 -8 6 -5 13 3 8 -2 20 -11 27 -8 7 -15 23 -15 36 0 12 -6 29 -14 36
-7 8 -21 27 -29 43 -9 17 -39 55 -67 84 -27 30 -50 59 -50 64 0 5 -7 7 -15 3
-9 -3 -15 0 -15 8 0 31 -206 165 -261 169 -16 1 -29 4 -29 7 0 9 -73 34 -87
32 -7 -2 -23 2 -35 9 -12 6 -46 13 -75 15 -30 2 -59 6 -64 9 -5 4 -9 2 -9 -4
0 -7 -8 -7 -26 -1 -28 11 -38 12 -45 6z m-92 -466 c16 0 29 -11 43 -37 11 -21
32 -56 45 -78 55 -92 62 -110 48 -123 -13 -13 -7 -74 9 -80 15 -6 8 -19 -17
-30 -27 -12 -27 -36 -1 -74 10 -14 16 -44 16 -79 l0 -57 -45 -11 c-25 -6 -45
-15 -45 -20 0 -5 -2 -15 -5 -23 -8 -20 33 -42 51 -27 10 8 14 8 14 0 0 -6 9
-11 20 -11 28 0 36 -26 21 -64 -7 -17 -13 -39 -13 -48 1 -10 -4 -20 -9 -23 -5
-4 -6 -11 -3 -17 4 -6 8 -58 9 -117 1 -58 3 -108 5 -111 1 -3 3 -11 4 -18 3
-36 126 -116 126 -82 0 20 20 9 33 -17 22 -43 29 -93 14 -93 -7 0 -18 5 -25
12 -18 18 -14 -3 6 -37 55 -90 75 -128 64 -121 -7 4 -12 3 -12 -3 0 -5 -10
-13 -22 -16 -43 -12 -108 -45 -108 -54 0 -6 -8 -10 -17 -10 -35 0 -78 -14 -86
-28 -5 -7 -13 -11 -18 -7 -5 3 -15 1 -22 -4 -12 -10 -182 -42 -224 -42 -13 0
-23 -4 -23 -10 0 -5 -7 -7 -15 -4 -8 3 -38 8 -67 10 -79 5 -88 7 -88 21 0 11
-19 18 -42 14 -4 0 -24 15 -45 35 -21 20 -49 42 -63 49 -14 7 -36 25 -49 39
-14 14 -30 26 -37 26 -14 0 -86 69 -110 105 -9 14 -12 29 -8 37 5 7 9 18 10
23 1 6 5 26 9 45 3 19 8 60 10 90 6 73 12 114 34 205 8 36 17 149 26 340 7
157 15 210 35 237 11 15 20 34 20 43 0 8 4 14 9 13 5 -2 25 14 44 34 19 21 37
35 41 31 3 -3 6 -1 6 5 0 7 4 12 9 12 5 0 33 16 62 35 30 19 60 35 67 35 7 0
10 5 6 12 -5 8 -2 9 9 5 9 -3 23 0 31 8 8 8 19 15 24 15 6 0 12 5 14 12 2 6
13 12 24 13 64 5 131 17 144 25 9 6 19 5 24 0 6 -6 20 -10 33 -10z m423 -525
c13 -14 29 -25 36 -25 35 0 38 -26 49 -350 3 -102 10 -213 14 -247 4 -34 4
-60 -1 -57 -4 3 -8 -2 -8 -10 0 -9 5 -16 10 -16 6 0 10 -7 10 -16 0 -8 -4 -12
-10 -9 -13 8 -13 -18 0 -31 6 -6 7 -28 2 -54 -11 -64 -34 -64 -61 -1 -11 27
-21 56 -21 63 0 8 -7 23 -15 36 -9 12 -17 36 -19 54 -2 18 -9 60 -16 93 -7 33
-13 103 -14 156 -1 78 2 98 17 113 23 23 22 51 -4 87 -17 25 -21 44 -20 118 1
126 9 141 51 96z m-132 -412 c-3 -33 0 -38 20 -41 34 -5 26 -20 -13 -28 -41
-7 -53 -1 -35 20 6 9 12 39 12 68 -1 40 2 49 9 36 5 -10 9 -35 7 -55z m-1244
-9 c3 -8 2 -12 -4 -9 -6 3 -10 10 -10 16 0 14 7 11 14 -7z m1156 -641 c-1 -17
-40 -54 -50 -48 -17 11 -11 23 15 29 14 4 23 11 20 16 -3 6 -1 10 4 10 6 0 11
-3 11 -7z m-50 -73 c6 0 10 -7 10 -15 0 -8 -5 -15 -11 -15 -6 0 -9 -6 -6 -14
3 -7 0 -19 -6 -25 -8 -8 -12 -54 -12 -134 0 -100 -3 -128 -17 -150 -10 -14
-18 -29 -18 -32 0 -4 -7 -13 -15 -22 -31 -30 -96 -134 -90 -142 3 -6 1 -12 -5
-16 -21 -13 -93 -182 -84 -197 3 -4 1 -8 -5 -8 -6 0 -8 -7 -5 -15 4 -8 1 -15
-4 -15 -6 0 -14 9 -17 20 -3 11 -13 20 -21 20 -8 0 -14 4 -14 9 0 11 -39 26
-58 23 -6 -2 -27 11 -44 27 -23 21 -35 27 -40 18 -6 -9 -8 -8 -8 3 0 18 -19
35 -70 67 -19 12 -50 38 -68 59 -27 31 -35 35 -44 23 -8 -11 -9 -11 -4 3 3 12
-6 26 -29 44 -19 14 -34 29 -34 32 3 21 -2 32 -13 26 -6 -4 -8 -3 -5 3 4 6 -2
21 -12 34 -10 13 -21 34 -25 46 -6 18 -4 21 12 18 10 -2 46 6 78 17 32 11 68
21 79 23 11 1 21 4 23 5 3 4 19 7 38 9 8 0 12 6 8 12 -4 7 1 7 16 -1 37 -20
70 -19 80 1 7 12 7 20 0 24 -5 3 -10 12 -10 18 0 7 4 6 11 -3 8 -11 9 -5 4 25
-4 22 -7 67 -7 100 0 33 -4 65 -8 70 -26 37 -20 44 35 40 30 -2 57 0 60 6 4 5
12 6 18 2 15 -9 169 -5 177 5 3 4 14 8 25 10 11 1 32 4 48 6 27 4 31 -1 28
-34 -2 -13 -1 -13 8 0 6 8 11 24 12 35 0 15 4 12 15 -12 8 -18 19 -33 24 -33z
m434 -625 c-4 -8 -10 -15 -14 -15 -5 0 -16 -34 -25 -75 -9 -41 -21 -75 -26
-75 -5 0 -9 4 -9 9 0 5 -3 17 -7 27 -5 13 -3 15 7 9 10 -6 12 -4 6 11 -25 60
-25 74 -3 86 12 7 28 13 36 14 7 2 18 7 24 13 15 15 17 14 11 -4z m143 -110
c67 -60 104 -111 105 -147 1 -13 8 -31 16 -40 14 -16 13 -18 -4 -20 -10 0 -23
-2 -29 -3 -5 -2 -21 -3 -34 -4 -16 -1 -21 -5 -17 -16 4 -11 -2 -15 -22 -15
-22 0 -24 -2 -12 -11 12 -9 11 -9 -5 -4 -11 4 -46 7 -77 6 -66 -2 -70 5 -44
76 17 47 46 180 46 211 0 12 3 22 8 22 4 0 35 -25 69 -55z"/>
<path d="M1654 3219 c-33 -9 -46 -34 -37 -68 4 -16 12 -18 56 -14 29 3 63 6
77 6 14 1 27 5 30 9 3 4 19 1 34 -8 16 -8 32 -11 35 -8 3 4 0 9 -6 11 -7 3
-13 10 -13 16 0 7 11 0 25 -15 40 -43 76 -12 41 34 -20 26 -87 53 -96 38 -4
-7 -10 -8 -13 -3 -8 12 -91 13 -133 2z"/>
<path d="M1578 3035 c-3 -3 -18 -8 -34 -11 -45 -7 -51 -11 -57 -33 -9 -35 28
-50 96 -38 31 6 59 8 62 5 3 -2 -4 -31 -15 -64 -15 -46 -18 -78 -15 -145 6
-129 18 -148 108 -166 30 -6 38 15 13 39 -28 29 -28 53 3 71 23 14 30 26 35
69 4 29 18 72 32 95 13 23 24 48 24 57 0 8 7 22 15 30 21 20 6 50 -32 63 -77
28 -218 44 -235 28z"/>
<path d="M1837 2803 c-3 -5 -8 -28 -11 -50 -6 -52 14 -84 41 -67 22 14 27 35
18 82 -4 24 -9 31 -15 23 -6 -11 -10 -10 -17 4 -6 10 -13 13 -16 8z"/>
<path d="M1714 2377 c3 -12 6 -26 6 -31 0 -4 7 -5 16 -2 8 3 12 2 9 -4 -6 -10
42 -46 50 -38 3 3 -8 24 -24 48 -32 48 -67 64 -57 27z"/>
<path d="M2330 2311 c0 -6 4 -13 10 -16 6 -3 7 1 4 9 -7 18 -14 21 -14 7z"/>
<path d="M1838 2074 c-4 -3 -23 -7 -45 -8 -25 -1 -38 -7 -39 -16 -1 -22 16
-39 32 -33 8 3 14 0 14 -6 0 -7 21 -11 53 -11 48 0 55 3 65 25 17 38 5 55 -37
55 -21 0 -40 -3 -43 -6z"/>
<path d="M987 1359 c-9 -6 -17 -19 -17 -30 0 -11 -4 -28 -10 -38 -5 -10 -10
-35 -12 -55 -1 -20 -5 -36 -8 -36 -3 0 -6 -21 -7 -48 -2 -26 -8 -59 -14 -74
-6 -15 -9 -41 -7 -58 3 -16 0 -30 -5 -30 -5 0 -4 -6 2 -13 6 -8 9 -16 6 -19
-3 -2 8 -17 24 -32 40 -39 52 -19 54 92 1 50 5 88 9 86 9 -6 19 46 17 87 -1
19 3 52 9 74 19 73 0 116 -41 94z"/>
</g>
</svg>
