<?xml version="1.0" standalone="no"?>
<!DOCTYPE svg PUBLIC "-//W3C//DTD SVG 20010904//EN"
 "http://www.w3.org/TR/2001/REC-SVG-20010904/DTD/svg10.dtd">
<svg version="1.0" xmlns="http://www.w3.org/2000/svg"
 width="445.000000pt" height="445.000000pt" viewBox="0 0 445.000000 445.000000"
 preserveAspectRatio="xMidYMid meet">
<metadata>
Created by potrace 1.14, written by Peter Selinger 2001-2017
</metadata>
<g transform="translate(0.000000,445.000000) scale(0.100000,-0.100000)"
fill="#000000" stroke="none">
<path d="M3826 4378 c-7 -13 -19 -39 -25 -60 -17 -52 -80 -119 -169 -179 -92
-61 -308 -168 -487 -240 -151 -60 -225 -96 -311 -150 -65 -41 -146 -122 -165
-163 -10 -21 -14 -23 -30 -13 -30 19 -50 0 -96 -92 l-42 -82 -63 -4 c-35 -1
-88 -12 -119 -24 -54 -20 -57 -21 -95 -4 -59 26 -223 23 -290 -5 l-51 -21 -31
32 c-43 45 -60 92 -78 215 -23 166 -37 200 -90 216 -13 4 -27 1 -36 -8 -12
-12 -19 -9 -52 24 -43 44 -112 82 -246 135 -52 21 -109 48 -126 59 -41 28
-101 97 -105 121 -6 30 -32 29 -62 -1 -31 -31 -33 -26 -11 46 14 47 14 54 1
68 -40 39 -143 -45 -171 -137 -20 -69 -20 -102 0 -149 12 -28 17 -73 18 -180
l1 -142 -32 0 c-27 0 -34 -5 -39 -25 -9 -36 12 -135 52 -240 18 -50 31 -100
28 -111 -3 -11 6 -55 20 -99 14 -44 26 -82 26 -85 0 -3 -20 -4 -44 -2 -37 3
-46 0 -55 -17 -9 -17 -6 -32 19 -81 17 -33 46 -78 65 -99 l35 -38 -57 -29
c-46 -23 -59 -35 -61 -55 -3 -26 5 -32 69 -52 13 -4 17 -23 18 -102 1 -96 1
-97 -30 -126 -17 -16 -34 -28 -37 -28 -22 3 -33 -4 -47 -31 -30 -57 -10 -127
44 -151 25 -11 29 -20 33 -60 3 -30 23 -83 52 -141 56 -113 72 -187 56 -264
-15 -73 -62 -124 -114 -124 -20 0 -45 6 -56 13 -32 19 -41 -6 -37 -104 2 -73
8 -97 35 -151 73 -148 211 -238 319 -209 37 10 113 64 113 80 0 5 -23 2 -52
-5 -114 -30 -185 -8 -264 79 -51 57 -87 128 -99 195 l-7 42 27 -10 c59 -23
149 31 182 109 46 107 34 210 -44 374 -44 93 -54 125 -50 151 6 39 3 46 -45
75 -38 23 -53 47 -43 72 7 20 80 17 127 -4 21 -10 42 -17 48 -17 6 0 4 -12 -5
-30 -19 -37 -19 -80 -1 -106 14 -18 15 -18 25 9 6 16 11 33 11 38 0 5 9 27 20
49 24 47 25 60 5 60 -8 0 -29 13 -46 28 l-32 29 41 16 c22 9 43 21 46 26 10
15 -29 31 -61 25 l-28 -5 -3 80 c-2 64 1 90 17 127 12 25 18 50 15 55 -8 14
-50 11 -63 -5 -12 -14 -51 -11 -51 4 0 4 15 19 34 34 l34 26 -13 50 c-7 27
-22 65 -34 83 -28 46 -27 50 17 42 38 -6 39 -6 40 27 1 18 -10 68 -24 111 -18
54 -24 90 -21 114 5 27 -1 49 -24 95 -25 50 -69 189 -69 219 0 5 20 6 44 3 43
-6 44 -6 51 25 4 18 1 71 -5 118 -7 48 -9 111 -6 145 5 37 3 64 -3 72 -32 39
-20 176 19 211 16 15 18 12 22 -40 6 -75 20 -87 57 -51 l29 28 17 -36 c31 -65
89 -102 247 -160 51 -18 114 -44 141 -56 46 -22 117 -92 117 -116 0 -6 7 -17
15 -24 13 -10 19 -10 34 4 18 16 19 15 30 -31 6 -26 13 -70 16 -98 14 -108 42
-180 92 -236 l24 -26 -38 -28 c-70 -53 -338 -303 -403 -376 -72 -80 -64 -84
50 -22 82 44 137 87 275 214 186 172 273 216 410 207 86 -6 99 -12 84 -39 -25
-47 -6 -49 81 -8 47 22 109 45 138 51 50 10 56 9 110 -19 31 -16 117 -69 189
-117 73 -48 137 -85 143 -81 5 3 10 17 10 31 0 36 -57 90 -190 180 -63 42
-114 82 -112 88 2 6 14 35 28 65 22 49 26 53 38 36 12 -17 14 -16 34 12 25 35
183 157 267 206 33 19 121 60 195 91 173 72 436 202 519 256 80 52 187 153
211 200 l18 35 12 -30 c7 -16 14 -56 17 -87 l6 -57 61 -8 61 -8 -36 -40 c-64
-72 -76 -97 -82 -165 -5 -69 -34 -168 -99 -343 -45 -119 -44 -143 2 -133 17 3
30 2 30 -2 0 -16 -80 -89 -202 -183 -69 -54 -139 -117 -155 -139 -19 -27 -33
-38 -43 -33 -17 8 -77 9 -85 1 -9 -9 54 -126 76 -142 12 -8 46 -21 75 -27 l53
-12 -20 -29 c-11 -15 -36 -40 -54 -54 l-34 -26 -33 20 c-37 23 -134 46 -163
40 -16 -3 -14 -7 15 -21 108 -52 149 -119 150 -242 0 -44 5 -97 9 -119 11 -47
53 -92 99 -107 l36 -12 -37 -33 c-31 -29 -44 -34 -85 -34 -59 0 -141 27 -207
68 -74 46 -101 22 -46 -40 37 -42 99 -73 187 -94 38 -9 83 -21 99 -27 17 -5
56 -12 88 -15 31 -2 57 -7 57 -12 0 -17 -117 -110 -123 -98 -21 42 -40 64 -56
66 -24 4 -26 -6 -10 -42 20 -43 3 -87 -63 -161 -95 -108 -132 -206 -108 -291
24 -86 125 -141 202 -111 l38 15 -15 -28 c-37 -72 -151 -130 -255 -130 -47 0
-170 19 -170 27 0 2 23 43 52 89 43 71 53 95 56 143 4 51 1 61 -23 89 -30 36
-82 66 -131 76 l-32 7 15 47 c8 26 17 91 20 144 5 87 4 100 -16 133 -34 58
-29 82 24 107 41 20 65 51 51 65 -3 3 -25 -4 -49 -16 -24 -11 -49 -21 -55 -21
-15 0 -16 17 -1 26 21 12 40 77 40 131 0 123 -72 230 -198 295 -87 45 -139 62
-292 93 -159 32 -219 59 -257 115 -34 50 -55 66 -78 57 -23 -9 -21 -74 4 -115
18 -28 18 -36 7 -64 l-13 -31 -36 31 c-36 32 -60 92 -60 148 0 25 -5 22 -62
-39 -70 -75 -119 -102 -266 -147 -58 -18 -144 -49 -192 -70 -182 -78 -328
-218 -328 -313 0 -13 -11 -34 -25 -47 -52 -49 -61 -143 -25 -278 19 -73 20
-92 11 -144 -6 -33 -16 -67 -22 -74 -30 -36 29 -22 70 16 21 20 23 21 18 4
-31 -104 -11 -170 80 -265 70 -74 134 -121 227 -171 69 -36 70 -37 44 -47 -18
-7 -36 -6 -57 2 -35 13 -117 -8 -189 -49 -46 -27 -58 -25 -73 14 -7 19 -13 22
-21 14 -9 -9 -9 -20 0 -46 12 -32 11 -36 -18 -64 -16 -17 -30 -37 -30 -46 0
-8 37 -40 83 -70 45 -30 95 -66 111 -79 l28 -23 -98 -23 c-55 -13 -154 -26
-221 -30 -141 -8 -151 -13 -183 -98 -36 -97 -107 -560 -123 -805 l-4 -58 42 0
42 0 6 92 c8 123 63 521 87 630 10 48 26 100 34 116 14 28 18 29 108 35 187
13 408 81 408 124 0 27 -170 164 -233 189 -27 10 -20 19 36 46 70 34 112 46
172 50 l49 3 27 -80 c41 -121 52 -198 39 -279 -25 -156 -72 -232 -324 -513
-90 -100 -165 -210 -225 -330 l-41 -83 53 0 53 0 28 58 c51 104 131 215 250
347 64 72 139 165 165 208 l49 77 4 -97 c5 -120 26 -173 76 -188 21 -6 32 -15
32 -28 0 -31 -20 -57 -44 -57 -13 0 -28 -6 -34 -13 -13 -16 -32 -159 -32 -244
0 -59 1 -63 24 -63 22 0 23 3 29 113 5 114 19 173 37 162 5 -3 10 -24 10 -46
0 -68 57 -98 125 -67 24 11 42 48 32 65 -3 5 1 17 9 28 28 38 39 3 39 -130 0
-123 0 -125 23 -125 21 0 22 3 21 103 -1 142 -9 189 -36 202 -20 10 -20 12 -5
32 12 14 37 23 87 31 120 19 246 99 330 210 19 24 35 41 35 36 0 -5 -20 -87
-44 -184 -44 -173 -86 -373 -86 -411 0 -16 7 -19 45 -19 25 0 45 2 45 4 0 42
84 407 146 636 35 126 37 144 36 270 0 79 5 160 13 195 7 33 16 87 20 120 10
94 55 303 76 361 19 49 24 54 74 73 73 28 178 45 227 37 41 -7 132 -48 143
-66 8 -13 -7 -39 -80 -141 -34 -48 -67 -107 -75 -132 -11 -41 -10 -50 7 -84
16 -31 28 -39 69 -51 55 -15 185 -10 297 12 l68 13 39 -46 c22 -25 96 -118
166 -206 372 -468 578 -686 715 -755 30 -16 72 -47 92 -69 l37 -41 0 65 c0 72
4 68 -125 140 -105 59 -341 316 -695 759 -78 98 -158 187 -176 198 -19 11 -34
24 -34 30 0 5 23 31 52 56 28 26 59 65 69 87 30 66 20 150 -14 116 -13 -13
-87 -14 -121 -2 -18 8 -23 15 -19 30 3 12 12 21 19 21 15 0 94 67 94 80 0 4
-13 21 -30 38 -40 42 -39 83 1 142 17 25 33 57 36 72 4 20 18 33 58 53 29 14
72 46 95 71 33 36 41 51 38 77 l-3 32 -78 3 -79 3 40 29 c70 51 102 116 70
148 -7 7 -29 12 -49 12 -26 0 -47 8 -66 24 -27 24 -28 27 -34 153 -3 70 -8
135 -12 143 -5 11 8 24 45 45 56 32 168 156 168 186 0 38 -25 47 -108 42 -64
-5 -80 -3 -91 11 -12 15 -10 21 15 47 16 17 95 75 175 129 211 142 278 216
251 275 -10 20 -19 25 -51 25 l-40 0 34 73 c44 97 115 318 115 360 0 37 16 62
92 144 53 57 59 80 27 109 -16 15 -36 19 -90 19 l-69 0 0 55 c0 57 -24 122
-54 153 -24 24 -63 21 -80 -5z m-1647 -1662 c25 -19 31 -18 97 24 26 17 36 18
65 9 19 -6 40 -13 48 -15 8 -3 -1 -14 -25 -30 -83 -56 -114 -102 -129 -191 -6
-41 -7 -41 -36 -31 -43 15 -177 0 -241 -27 -12 -5 -18 -3 -18 6 0 25 -53 89
-99 120 -25 16 -72 38 -105 47 l-59 16 34 12 c52 19 89 16 169 -11 40 -14 77
-25 82 -25 19 0 5 25 -32 60 l-39 36 58 28 c33 15 71 40 85 55 l27 28 47 -46
c26 -25 58 -54 71 -65z m341 -125 c-19 -36 -33 -165 -22 -204 6 -20 9 -37 7
-37 -2 0 -52 22 -111 50 l-106 50 42 50 c60 72 117 107 178 109 19 1 21 -2 12
-18z m105 -3 c20 -9 25 -17 20 -32 -14 -45 -17 -114 -6 -135 16 -28 57 -28 72
1 9 17 9 23 -1 26 -40 14 -62 68 -41 101 7 11 18 10 62 -7 l54 -20 -1 -44 c-2
-54 -40 -145 -65 -159 -33 -17 -113 -16 -142 3 -54 36 -58 162 -6 247 21 35
20 35 54 19z m324 -188 c1 -78 -16 -142 -42 -162 l-21 -16 29 -13 c17 -7 31
-14 33 -15 1 0 0 -8 -3 -16 -6 -14 -12 -13 -56 3 -28 11 -81 33 -117 50 -57
26 -64 32 -46 39 38 15 171 156 184 196 l13 37 13 -24 c7 -13 13 -49 13 -79z
m-1120 79 c50 -16 84 -48 69 -66 -15 -19 -194 -143 -206 -143 -32 0 -42 159
-12 195 19 23 98 30 149 14z m-214 -108 c0 -72 3 -93 18 -109 18 -19 17 -20
-13 -42 -30 -22 -32 -22 -52 -4 -47 43 -67 141 -39 193 10 17 56 46 81 50 3 1
5 -39 5 -88z m730 -41 c163 -73 445 -195 540 -232 l60 -24 3 -50 c4 -58 -13
-153 -36 -200 -12 -26 -22 -34 -42 -34 -36 0 -165 -37 -212 -61 -30 -15 -45
-33 -64 -72 -13 -29 -24 -57 -24 -63 0 -23 -345 -123 -518 -150 -258 -40 -431
11 -601 176 -86 84 -99 113 -82 194 18 85 47 148 84 183 18 17 92 67 165 113
143 89 237 156 328 235 50 44 64 51 113 56 89 10 127 1 286 -71z m-962 13 c4
-2 7 -12 7 -21 0 -32 40 -83 90 -114 28 -17 50 -34 50 -37 0 -3 -21 -19 -48
-36 -70 -44 -131 -104 -157 -155 -23 -43 -24 -44 -25 -16 0 17 -9 64 -21 105
-27 97 -23 166 14 215 15 19 27 44 27 56 0 17 4 19 28 14 15 -4 30 -9 35 -11z
m2027 -638 c22 -13 9 -26 -20 -20 -25 6 -32 3 -39 -17 -17 -41 -12 6 6 58 l17
49 12 -32 c8 -17 18 -34 24 -38z m-935 -316 c-19 -84 -19 -111 4 -140 16 -21
18 -40 15 -158 -2 -74 -7 -137 -11 -142 -13 -12 -197 -66 -318 -94 -61 -14
-157 -28 -215 -31 -58 -2 -122 -6 -143 -8 -37 -4 -38 -3 -33 22 3 15 15 81 27
147 12 66 28 127 36 136 20 24 18 65 -12 195 -5 20 0 21 113 27 127 5 253 29
432 81 63 18 116 32 118 31 1 -1 -4 -31 -13 -66z m-718 -95 c19 -84 16 -124
-12 -150 -28 -26 -27 -27 -45 46 -7 25 -23 65 -36 89 -13 24 -23 45 -21 47 6
6 82 22 92 20 6 -2 15 -25 22 -52z m1378 7 c22 -6 60 -11 85 -12 l45 -1 -55
-10 c-59 -10 -157 -5 -172 10 -5 5 -4 20 2 37 l11 28 22 -21 c12 -11 40 -25
62 -31z m222 3 c-3 -3 -12 -4 -19 -1 -8 3 -5 6 6 6 11 1 17 -2 13 -5z m-44
-11 c-7 -2 -19 -2 -25 0 -7 3 -2 5 12 5 14 0 19 -2 13 -5z m-1564 -385 c-30
-184 -37 -342 -18 -399 7 -19 21 -44 32 -56 30 -34 14 -38 -20 -5 -57 53 -66
196 -27 427 9 50 17 112 19 139 4 43 16 65 36 66 3 0 -7 -78 -22 -172z m707
-47 c-33 -63 -78 -98 -161 -124 -203 -64 -523 -58 -533 9 -3 19 2 20 91 16 59
-3 134 2 203 13 114 18 326 74 372 99 39 22 44 19 28 -13z m10 -86 c-11 -43
-124 -202 -182 -254 -67 -61 -161 -107 -235 -116 l-57 -6 -4 29 -4 30 60 -2
c89 -2 155 35 259 143 45 47 100 112 122 143 22 32 42 58 44 58 2 0 0 -11 -3
-25z m-115 -63 c-5 -10 -48 -55 -96 -101 -131 -126 -231 -162 -297 -106 -38
32 -75 32 -122 0 -20 -14 -41 -25 -47 -25 -19 0 -39 69 -39 136 0 59 2 65 18
58 9 -4 69 -9 132 -11 127 -5 276 13 375 46 79 25 88 26 76 3z m-434 -240 c16
-10 26 -57 19 -87 -6 -23 -11 -25 -67 -25 l-61 0 7 28 c9 39 33 72 58 82 28
11 30 11 44 2z m-27 -163 c0 -6 -11 -21 -25 -35 -29 -29 -47 -22 -63 24 l-9
27 48 -3 c27 -2 49 -8 49 -13z m-16 -111 c-3 -5 -21 -8 -40 -8 -19 0 -34 3
-34 8 0 4 18 7 39 7 22 0 37 -3 35 -7z"/>
<path d="M1745 2410 c8 -52 16 -63 41 -58 12 2 20 13 22 31 3 21 -1 27 -17 27
-11 0 -27 10 -36 23 -16 21 -16 21 -10 -23z"/>
<path d="M3752 3956 c-41 -35 -133 -89 -270 -160 -255 -133 -380 -214 -462
-302 -61 -66 -110 -149 -110 -189 0 -19 5 -20 71 -17 72 4 72 4 65 -19 -19
-70 -29 -120 -23 -125 12 -12 32 14 71 95 39 79 39 81 21 101 -24 26 -80 26
-124 -1 -18 -11 -35 -18 -38 -15 -10 10 29 64 84 117 87 85 172 138 423 264
125 63 250 130 279 149 50 34 51 34 51 12 0 -13 -14 -71 -31 -130 -16 -59 -29
-119 -27 -134 l3 -27 37 36 c52 51 71 123 72 274 1 99 -2 120 -14 122 -8 1
-43 -21 -78 -51z"/>
<path d="M1055 3826 c-41 -62 -47 -169 -13 -225 l23 -36 6 30 c4 17 7 60 8 96
0 36 4 68 7 71 3 3 15 -4 28 -16 12 -13 62 -45 111 -72 102 -55 177 -126 224
-207 34 -59 71 -158 71 -189 0 -17 -2 -18 -30 -3 -41 21 -96 19 -119 -4 -11
-11 -30 -52 -42 -93 -13 -40 -24 -75 -26 -77 -1 -2 -30 8 -63 23 -85 36 -93
30 -114 -86 -26 -138 -30 -188 -18 -188 6 0 14 15 17 33 11 50 55 187 61 187
2 0 32 -14 66 -31 83 -42 99 -34 127 63 38 128 31 121 112 116 54 -4 72 -2 76
8 11 28 -28 172 -67 252 -52 105 -128 183 -232 240 -43 23 -102 62 -133 87
-30 25 -57 45 -60 45 -2 0 -12 -11 -20 -24z"/>
<path d="M3543 3603 c-19 -7 -15 -23 5 -23 29 0 32 -10 16 -42 -15 -29 -15
-30 8 -23 46 15 70 54 48 80 -12 15 -52 19 -77 8z"/>
<path d="M1143 3563 c-24 -9 -14 -51 16 -72 38 -27 55 -28 41 -2 -14 27 -13
31 10 31 29 0 24 17 -10 35 -30 16 -37 17 -57 8z"/>
<path d="M3410 3402 c0 -6 16 -13 35 -16 25 -5 33 -11 28 -22 -4 -12 0 -15 23
-12 23 2 29 8 29 28 0 23 -4 25 -57 28 -32 2 -58 -1 -58 -6z"/>
<path d="M1067 3313 c-15 -14 -5 -34 26 -53 39 -24 51 -25 43 -3 -4 9 -1 20 6
24 9 6 9 11 -1 23 -13 16 -62 22 -74 9z"/>
<path d="M3216 3235 c-32 -12 -80 -45 -139 -95 -11 -10 111 14 155 30 21 8 40
11 43 9 3 -3 -2 -27 -10 -54 -14 -47 -13 -65 4 -65 14 0 63 128 59 157 -3 24
-8 28 -38 30 -19 1 -53 -4 -74 -12z"/>
<path d="M3167 503 c-4 -3 -7 -17 -7 -29 0 -30 49 -160 65 -174 10 -9 9 -19
-8 -53 -11 -23 -35 -87 -52 -142 l-32 -100 44 -3 c25 -2 47 -1 49 1 2 2 18 57
35 123 17 65 32 120 34 122 1 1 58 -24 126 -56 68 -32 158 -71 199 -87 41 -16
76 -30 78 -31 2 -1 -14 -18 -35 -38 l-38 -35 69 -1 c59 0 74 4 103 26 42 32
45 69 6 86 -16 7 -39 19 -53 28 -14 9 -59 29 -100 45 -41 15 -138 58 -215 95
-134 64 -142 70 -160 110 -39 87 -86 136 -108 113z"/>
<path d="M1825 123 c-35 -9 -77 -45 -91 -79 -19 -44 -19 -44 16 -44 19 0 30 5
30 14 0 19 57 66 80 66 21 0 50 -36 50 -62 0 -11 8 -18 20 -18 16 0 20 7 20
31 0 43 -16 69 -55 85 -36 15 -38 15 -70 7z"/>
</g>
</svg>
